<svg xmlns="http://www.w3.org/2000/svg" xmlns:xlink="http://www.w3.org/1999/xlink" x="0px" y="0px"
    viewBox="0 0 512.002 512.002">
    <g>
        <path fill="#efd7ad" d="M472.862,512.001H39.14C17.558,512.001,0,494.443,0,472.862V345.894
        c0-8.714,7.065-15.781,15.781-15.781s15.781,7.067,15.781,15.781v126.969c0,4.177,3.399,7.576,7.578,7.576h433.722
        c4.177,0,7.578-3.398,7.578-7.576V39.139c0-4.177-3.399-7.576-7.578-7.576H39.14c-4.179,0-7.578,3.399-7.578,7.576v214.045
        c0,8.714-7.065,15.781-15.781,15.781S0,261.898,0,253.184V39.139C0,17.559,17.558,0.001,39.14,0.001h433.722
        c21.582,0,39.14,17.558,39.14,39.138v433.723C512,494.443,494.442,512.001,472.862,512.001z" />
        <path fill="#efd7ad" d="M428.658,219.004c-8.716,0-15.781-7.067-15.781-15.781V99.124H99.125v38.987
        c0,8.714-7.065,15.781-15.781,15.781s-15.781-7.067-15.781-15.781v-45.26c0-13.946,11.345-25.289,25.289-25.289H419.15
        c13.944,0,25.289,11.343,25.289,25.289v110.37C444.439,211.937,437.374,219.004,428.658,219.004z" />
    </g>
    <path fill="transparent" d="M419.15,428.659H204.456l0,0H92.852c-5.252,0-9.508-4.258-9.508-9.508V280.774v-77.551h121.112l0,0
    h224.201v215.927C428.658,424.401,424.4,428.659,419.15,428.659z" />
    <path fill="#efd7ad" d="M419.148,444.439H92.85c-13.944,0-25.289-11.345-25.289-25.289V203.223
    c0-8.714,7.065-15.781,15.781-15.781h345.315c8.716,0,15.781,7.067,15.781,15.781V419.15
    C444.439,433.095,433.094,444.439,419.148,444.439z M99.125,412.878h313.752V219.004H99.125V412.878z" />
    <g>
    </g>
    <g>
    </g>
    <g>
    </g>
    <g>
    </g>
    <g>
    </g>
    <g>
    </g>
    <g>
    </g>
    <g>
    </g>
    <g>
    </g>
    <g>
    </g>
    <g>
    </g>
    <g>
    </g>
    <g>
    </g>
    <g>
    </g>
    <g>
    </g>
</svg>
